Coordinates
version=1
nRows=9
nColumns=24
inDegrees=yes

Units are S.I. units (second, meters, Newtons, ...)
Angles are in degrees.

endheader
time	pelvis_tilt	pelvis_list	pelvis_rotation	pelvis_tx	pelvis_ty	pelvis_tz	hip_flexion_r	hip_adduction_r	hip_rotation_r	knee_angle_r	ankle_angle_r	subtalar_angle_r	mtp_angle_r	hip_flexion_l	hip_adduction_l	hip_rotation_l	knee_angle_l	ankle_angle_l	subtalar_angle_l	mtp_angle_l	lumbar_extension	lumbar_bending	lumbar_rotation
      0.71700000	     -4.16864412	      5.15494780	      9.89287963	     -0.07388235	      0.96744847	      0.24271910	     36.56954214	    -11.13034030	    -11.40203289	     -5.21922593	      6.93807861	     -6.37264827	     -0.76662957	    -16.09982989	      5.50785754	      0.29512739	     -3.52050196	     15.68386202	     -2.48922645	     -0.23736541	     -7.99248033	     -4.15556795	     -7.08427632
      0.72116667	     -4.19180415	      5.15930926	     10.03920393	     -0.06821274	      0.96630265	      0.24270214	     36.44817114	    -11.20254905	    -11.34630476	     -5.75401514	      7.03799917	     -6.45569407	     -0.84940257	    -16.31335474	      5.38825350	      0.37003871	     -3.75118998	     15.76298796	     -2.36116165	     -0.29081544	     -7.93547621	     -4.07822997	     -7.11573111
      0.72533333	     -4.17043300	      5.07493310	     10.22022122	     -0.06240930	      0.96530327	      0.24262567	     36.24017735	    -11.21035129	    -11.44450544	     -6.26613020	      7.09217450	     -6.40366013	     -1.43195853	    -16.53931233	      5.14777377	      0.34231673	     -4.02641130	     15.88383949	     -1.99410250	     -0.67269261	     -7.90859146	     -3.87035948	     -7.40146048
      0.72950000	     -4.18454187	      5.09919835	     10.33755287	     -0.05670365	      0.96421967	      0.24274275	     36.12025250	    -11.27134915	    -11.36078043	     -6.84327692	      7.08610029	     -6.52033060	     -1.49512197	    -16.75997542	      5.04632074	      0.43701372	     -4.26319589	     15.90968861	     -1.92277472	     -0.71343807	     -7.87710388	     -3.83280639	     -7.37487100
      0.73366667	     -4.17345170	      5.06096437	     10.46768611	     -0.05088804	      0.96323539	      0.24284924	     35.94846090	    -11.27893250	    -11.38040440	     -7.39169080	      7.01220734	     -6.54683549	     -1.70839722	    -16.98169181	      4.86151488	      0.44676222	     -4.53461463	     15.97982924	     -1.65525647	     -0.85193723	     -7.85600340	     -3.71243966	     -7.48354612
      0.73783333	     -4.21684739	      5.03327834	     10.53833247	     -0.04499323	      0.96216676	      0.24304162	     35.85717629	    -11.26412508	    -11.32027885	     -7.95519720	      6.90900520	     -6.60169807	     -1.72181741	    -17.17164926	      4.72086795	      0.48852925	     -4.75992772	     15.90896184	     -1.62689514	     -0.86040906	     -7.76093303	     -3.59912945	     -7.48135698
      0.74200000	     -4.16313866	      4.91808502	     10.69044741	     -0.03905408	      0.96138417	      0.24316745	     35.59300560	    -11.19153436	    -11.43132766	     -8.41283323	      6.68938352	     -6.78766002	     -1.86379495	    -17.40641206	      4.43076216	      0.46976682	     -5.06482139	     15.94773179	     -1.30283493	     -0.94778914	     -7.75932411	     -3.39377094	     -7.60698166
      0.74616667	     -4.11739209	      4.80547273	     10.76854310	     -0.03305038	      0.96061011	      0.24343074	     35.35806541	    -11.07364109	    -11.47421954	     -8.85508100	      6.38881975	     -6.94469347	     -1.97415074	    -17.65349458	      4.16599572	      0.43897650	     -5.32180877	     15.84000566	     -1.11809211	     -1.01695858	     -7.75877886	     -3.18182004	     -7.64712383
      0.75033333	     -4.02233841	      4.67857479	     10.81512921	     -0.02701068	      0.95995123	      0.24376965	     35.07453703	    -10.91472253	    -11.53810442	     -9.26571058	      6.02812009	     -7.12636575	     -2.09426062	    -17.93642808	      3.88022220	      0.33258421	     -5.60596797	     15.75294890	     -0.90284679	     -1.09169339	     -7.79475863	     -2.95295738	     -7.69479139
